# xmcd
#
# Track frame offsets:
#	180
#	11398
#	20443
#	36304
#	52112
#	65647
#	82302
#	97427
#	112049
#	125008
#
# Disc length: 1894 seconds
#
# Revision: 1
# Processed by: cddbd v1.5.2PL0 Copyright (c) Steve Scherf et al.
# Submitted via: audiograbber 1.83.01
#
DISCID=9507640a
DTITLE=Various Artist - Glory Train Records 12-98
DYEAR=1998
DGENRE=Gospel
TTITLE0=LeNaye Pearson - Somebody Loves You
TTITLE1=Ray Owens - Don't Be Fooled
TTITLE2=Dianne Coburn - Power In His Name
TTITLE3=The Lawsons - Jesus And Cavalry
TTITLE4=Ray Schaneckloth - Sonshine
TTITLE5=Robert Shields - Open Up Your Bible
TTITLE6=Judy DeRamus - White Christmas
TTITLE7=Robert Shields - Merry Christmas To The Savior
TTITLE8=Tim Beitzel - Greatest Christmas Present
TTITLE9=Cody Shamblen - Smokey Mountain Christmas
EXTD=
EXTT0=
EXTT1=
EXTT2=
EXTT3=
EXTT4=
EXTT5=
EXTT6=
EXTT7=
EXTT8=
EXTT9=
PLAYORDER=
